<svg xmlns="http://www.w3.org/2000/svg" width="744" height="744"><path d="M175.594 253.514C138.967 313.747 109 363.73 109 364.588c0 1.77 6.031 13.614 84.489 165.912 23.517 45.65 43.308 83.589 43.98 84.31.991 1.061 26.785 1.42 136.127 1.893 131.509.568 134.944.535 136.512-1.31 2.445-2.878 132.109-216.509 132.638-218.53.505-1.929-10.808-24.334-80.97-160.354-25.247-48.946-46.619-89.783-47.494-90.75-1.504-1.662-9.051-1.759-136.843-1.759H242.188l-66.594 109.514m179.758-81.594c-43.589 136.517-48.243 151.613-47.07 152.679C310.712 326.805 450.861 427 451.518 427c.479 0 125.749-91.824 141.268-103.551 1.13-.854-6.634-16.629-41.345-84-23.504-45.622-43.007-83.238-43.338-83.591-.332-.353-33.573-.839-73.871-1.08l-73.267-.438-5.613 17.58" fill="undefined" fill-rule="evenodd"/></svg>